<svg width="295" height="295" viewBox="0 0 295 295" fill="none" xmlns="http://www.w3.org/2000/svg">
<g clip-path="url(#clip0_1_147)">
<path d="M61.4583 251.979C50.0485 251.979 39.106 247.447 31.038 239.379C22.97 231.311 18.4375 220.368 18.4375 208.958C18.4375 197.549 22.97 186.606 31.038 178.538C39.106 170.47 50.0485 165.938 61.4583 165.938C72.8682 165.938 83.8107 170.47 91.8787 178.538C99.9466 186.606 104.479 197.549 104.479 208.958C104.479 220.368 99.9466 231.311 91.8787 239.379C83.8107 247.447 72.8682 251.979 61.4583 251.979ZM61.4583 147.5C45.1586 147.5 29.5264 153.975 18.0007 165.501C6.47505 177.026 0 192.659 0 208.958C0 225.258 6.47505 240.89 18.0007 252.416C29.5264 263.942 45.1586 270.417 61.4583 270.417C77.7581 270.417 93.3903 263.942 104.916 252.416C116.442 240.89 122.917 225.258 122.917 208.958C122.917 192.659 116.442 177.026 104.916 165.501C93.3903 153.975 77.7581 147.5 61.4583 147.5ZM181.917 122.917H233.542V100.792H194.208L170.363 60.5979C166.798 54.4521 159.792 50.3958 152.417 50.3958C146.64 50.3958 141.354 52.7313 137.667 56.5417L92.1875 101.898C88.3771 105.708 86.0417 110.625 86.0417 116.771C86.0417 124.515 90.0979 131.029 96.4896 134.84L137.667 159.792V221.25H159.792V141.354L132.135 121.073L160.652 92.1875M233.542 251.979C222.132 251.979 211.189 247.447 203.121 239.379C195.053 231.311 190.521 220.368 190.521 208.958C190.521 197.549 195.053 186.606 203.121 178.538C211.189 170.47 222.132 165.938 233.542 165.938C244.952 165.938 255.894 170.47 263.962 178.538C272.03 186.606 276.562 197.549 276.562 208.958C276.562 220.368 272.03 231.311 263.962 239.379C255.894 247.447 244.952 251.979 233.542 251.979ZM233.542 147.5C217.242 147.5 201.61 153.975 190.084 165.501C178.558 177.026 172.083 192.659 172.083 208.958C172.083 225.258 178.558 240.89 190.084 252.416C201.61 263.942 217.242 270.417 233.542 270.417C241.613 270.417 249.604 268.827 257.061 265.738C264.517 262.65 271.292 258.123 276.999 252.416C282.706 246.709 287.233 239.934 290.322 232.477C293.41 225.021 295 217.029 295 208.958C295 200.888 293.41 192.896 290.322 185.439C287.233 177.983 282.706 171.208 276.999 165.501C271.292 159.794 264.517 155.267 257.061 152.178C249.604 149.09 241.613 147.5 233.542 147.5ZM196.667 59C208.958 59 218.792 49.1667 218.792 36.875C218.792 24.5833 208.958 14.75 196.667 14.75C184.375 14.75 174.542 24.5833 174.542 36.875C174.542 49.1667 184.375 59 196.667 59Z" fill="#3C5CCF"/>
</g>
<defs>
<clipPath id="clip0_1_147">
<rect width="295" height="295" fill="white"/>
</clipPath>
</defs>
</svg>
